<?xml version="1.0" encoding="UTF-8"?>
<svg xmlns="http://www.w3.org/2000/svg" xmlns:xlink="http://www.w3.org/1999/xlink" width="854pt" height="480pt" viewBox="0 0 854 480" version="1.1">
<defs>
<g>
<symbol overflow="visible" id="glyph0-0">
<path style="stroke:none;" d="M 0.578125 0 L 0.578125 -4.359375 L 3.078125 -4.359375 L 3.078125 0 Z M 0.890625 -0.3125 L 2.78125 -0.3125 L 2.78125 -4.046875 L 0.890625 -4.046875 Z "/>
</symbol>
<symbol overflow="visible" id="glyph0-1">
<path style="stroke:none;" d="M 1.109375 -1.296875 C 0.867188 -1.296875 0.671875 -1.359375 0.515625 -1.484375 C 0.367188 -1.609375 0.296875 -1.835938 0.296875 -2.171875 C 0.296875 -2.515625 0.367188 -2.75 0.515625 -2.875 C 0.671875 -3 0.867188 -3.0625 1.109375 -3.0625 C 1.253906 -3.0625 1.382812 -3.03125 1.5 -2.96875 C 1.625 -2.914062 1.722656 -2.828125 1.796875 -2.703125 C 1.867188 -2.578125 1.90625 -2.398438 1.90625 -2.171875 C 1.90625 -1.953125 1.867188 -1.773438 1.796875 -1.640625 C 1.722656 -1.515625 1.625 -1.425781 1.5 -1.375 C 1.382812 -1.320312 1.253906 -1.296875 1.109375 -1.296875 Z "/>
</symbol>
</g>
</defs>
<g id="surface6">
<g style="fill:rgb(0%,0%,0%);fill-opacity:1;">
  <use xlink:href="#glyph0-1" x="30" y="26.532227"/>
</g>
</g>
</svg>
